<svg viewBox="0 0 300 120" xmlns="http://www.w3.org/2000/svg">
  <!-- Define gradients and styles -->
  <defs>
    <linearGradient id="accentGradient" x1="0%" y1="0%" x2="100%" y2="100%">
      <stop offset="0%" style="stop-color:#FF4D00;stop-opacity:1" />
      <stop offset="100%" style="stop-color:#E63E00;stop-opacity:1" />
    </linearGradient>
    <style>
      .logo-text { font-family: 'Inter', sans-serif; font-weight: bold; }
      .logo-subtext { font-family: 'Roboto', sans-serif; font-weight: 300; }
    </style>
  </defs>

  <!-- Background circle for icon -->
  <circle cx="50" cy="60" r="48" fill="#1B263B" opacity="0.1"/>
  <circle cx="50" cy="60" r="45" fill="none" stroke="#FF4D00" stroke-width="2" opacity="0.3"/>

  <!-- Coding Ninjas Icon (scaled and positioned) -->
  <g transform="translate(35, 45) scale(1.8)">
    <path d="M23.198 0c-.499.264-1.209.675-1.79.984a542.82 542.82 0 000 6.242c.995-.526 1.761-.834 1.79-2.066V0zM8.743.181C7.298.144 5.613.65 4.47 1.414c-1.17.8-1.987 1.869-2.572 3.179A16.787 16.787 0 00.9 8.87c-.15 1.483-.128 3.079.025 4.677.27 1.855.601 3.724 1.616 5.456 1.57 2.62 4.313 4.109 7.262 4.19 3.41.246 7.233.53 11.411.807.022-2.005.01-5.418 0-6.25-3.206-.21-7.398-.524-11.047-.782-.443-.043-.896-.056-1.324-.172-1.086-.295-1.806-.802-2.374-1.757-.643-1.107-.875-2.832-.797-4.294.11-1.27.287-2.41 1.244-3.44.669-.56 1.307-.758 2.161-.84 5.17.345 7.609.53 12.137.858.032-1.133.01-3.46 0-6.229C16.561.752 12.776.474 8.743.181zm-.281 9.7c.174.675.338 1.305.729 1.903.537.832 1.375 1.127 2.388.877.76-.196 1.581-.645 2.35-1.282zm12.974 1.04l-5.447.689c.799.739 1.552 1.368 2.548 1.703.988.319 1.78.01 2.308-.777.209-.329.56-1.148.591-1.614zm.842 6.461c-.388.01-.665.198-.87.355.002 1.798 0 4.127 0 6.223.586-.297 1.135-.644 1.793-.998-.005-1.454.002-3.137-.005-4.707a.904.904 0 00-.917-.873z" 
          fill="url(#accentGradient)"/>
  </g>

  <!-- Main Text -->
  <text x="105" y="50" class="logo-text" font-size="28" fill="#1B263B">GlobalDev</text>
  
  <!-- Subtext -->
  <text x="105" y="72" class="logo-subtext" font-size="14" fill="#FF4D00" letter-spacing="1">ROADMAP</text>
  
  <!-- Accent line under main text -->
  <line x1="105" y1="55" x2="280" y2="55" stroke="#FF4D00" stroke-width="2" opacity="0.6"/>
  
  <!-- Tagline -->
  <text x="105" y="95" class="logo-subtext" font-size="10" fill="#1B263B" opacity="0.7">Local Fundamentals to FAANG Elite</text>
</svg>
