<svg id="Layer_1" data-name="Layer 1" xmlns="http://www.w3.org/2000/svg" viewBox="0 0 64 64"><title>robot</title><path d="M40.59,4H23.41A3.41,3.41,0,0,0,20,7.41v9.17A3.41,3.41,0,0,0,23.41,20h3.91a.68.68,0,0,1,.68.68v.22A1.1,1.1,0,0,0,29.1,22H34.9A1.1,1.1,0,0,0,36,20.9v-.22a.68.68,0,0,1,.68-.68h3.91A3.41,3.41,0,0,0,44,16.59V7.41A3.41,3.41,0,0,0,40.59,4ZM38,12a2,2,0,0,1-1.51-.71.86.86,0,0,0-.66-.29H28.18a.86.86,0,0,0-.66.29A2,2,0,0,1,26,12a2,2,0,1,1,1.53-3.27.84.84,0,0,0,.65.27h7.63a.84.84,0,0,0,.65-.27A2,2,0,1,1,38,12Z"/><path d="M17,8a1,1,0,0,0-1,1v6a1,1,0,0,0,2,0V9A1,1,0,0,0,17,8Z"/><path d="M47,16a1,1,0,0,0,1-1V9a1,1,0,1,0-2,0v6A1,1,0,0,0,47,16Z"/><path d="M20,46.38A1.62,1.62,0,0,0,21.62,48H42.38A1.62,1.62,0,0,0,44,46.38v-17A5.36,5.36,0,0,0,38.64,24H25.36A5.36,5.36,0,0,0,20,29.36Zm8.32-13.77A2.5,2.5,0,0,1,31,32.23a2.54,2.54,0,0,0,2.06,0,2.5,2.5,0,0,1,2.65.39A2.6,2.6,0,0,1,36,36l-2,2.86a2.5,2.5,0,0,1-4.12,0l-2-2.85A2.6,2.6,0,0,1,28.32,32.62Z"/><path d="M20,56h-.1A1.9,1.9,0,0,0,18,57.9v1A1.07,1.07,0,0,0,19.07,60h9.87A1.07,1.07,0,0,0,30,58.93v-1A1.9,1.9,0,0,0,28.1,56H28V51.17A1.17,1.17,0,0,0,26.83,50H21.17A1.17,1.17,0,0,0,20,51.17Z"/><path d="M42.83,50H37.17A1.17,1.17,0,0,0,36,51.17V56h-.1A1.9,1.9,0,0,0,34,57.9v1A1.07,1.07,0,0,0,35.07,60h9.87A1.07,1.07,0,0,0,46,58.93v-1A1.9,1.9,0,0,0,44.1,56H44V51.17A1.17,1.17,0,0,0,42.83,50Z"/><path d="M14,31.12v9.73a1.55,1.55,0,0,1-.39,1.06,6,6,0,0,0,3.32,10A.93.93,0,0,0,18,51V49a1.33,1.33,0,0,0-.8-1.2,1.94,1.94,0,0,1-.1-3.48,1.8,1.8,0,0,0,.9-1.62V28.88a.86.86,0,0,0-.82-.88A3.12,3.12,0,0,0,14,31.12Z"/><path d="M46.8,47.76A1.33,1.33,0,0,0,46,49v2a.93.93,0,0,0,1.07.92,6,6,0,0,0,3.32-10A1.55,1.55,0,0,1,50,40.86V31.12A3.12,3.12,0,0,0,46.82,28a.86.86,0,0,0-.82.88V42.67a1.8,1.8,0,0,0,.9,1.62,1.94,1.94,0,0,1-.1,3.48Z"/></svg>